<svg width="143" height="149" viewBox="0 0 143 149" fill="none" xmlns="http://www.w3.org/2000/svg">
  <g id="bb8-head">
    <g id="upper-head">
      <mask id="mask0" mask-type="alpha" maskUnits="userSpaceOnUse" x="1" y="45" width="140" height="72">
        <path id="Ellipse 8"
          d="M74.5257 46.4984C93.9725 48.039 109.236 55.4387 121.155 66.3618C134.046 79.1655 140.384 97.832 140.498 116H71L1.50122 116C1.60643 94.4224 8.53276 80.1568 20.3639 66.8432C33.2698 53.9442 55.1225 44.9613 74.5257 46.4984Z"
          fill="#C4C4C4" stroke="black" />
      </mask>
      <g mask="url(#mask0)">
        <path id="Ellipse 16"
          d="M74.5257 46.4984C93.9725 48.039 109.236 55.4387 121.155 66.3618C134.046 79.1655 140.384 97.832 140.498 116H71L1.50122 116C1.60643 94.4224 8.53276 80.1568 20.3639 66.8432C33.2698 53.9442 55.1225 44.9613 74.5257 46.4984Z"
          fill="#C4C4C4" stroke="black" />
        <path id="Vector 12"
          d="M71 111.5H115V88.5014C115 88.5014 114 83.5017 111 80.5018C105.739 75.241 96.5 75.5021 85.5 75.5021C85 77.502 84 82.5017 81.5 86.0015C79.1063 89.3525 73.6667 90.5012 71 90.5012V111.5Z"
          stroke="black" />
        <path id="Vector 13"
          d="M91.5 76C91.1667 72 87.0908 63.7727 74 60.5C64 58 63.5 58 53.5 61.5C48.8515 63.127 40.2588 68.0848 37.7226 83.5M37 93H71M37 93V111.5M37 93C37 89.4582 37.261 86.3059 37.7226 83.5M37 93H17.5L18.5 83.5H37.7226M1 111.5V113H141V111.5H1Z"
          stroke="black" />
        <path id="Vector 1" d="M14.5 126.5L1 116.5H141L125 126.5H14.5Z" fill="#C4C4C4" fill-opacity="0.66"
          stroke="black" />
        <circle id="Ellipse 9" cx="64.5" cy="75" r="16.25" fill="black" fill-opacity="0.74" stroke="black"
          stroke-width="2.5" />
        <circle id="Ellipse 10" cx="98" cy="90.5" r="11" fill="#C4C4C4" fill-opacity="0.55" stroke="black"
          stroke-width="2" />
        <circle id="Ellipse 12" cx="58" cy="104.5" r="3.75" fill="#656565" stroke="black" stroke-width="0.5" />
        <circle id="Ellipse 13" cx="58" cy="104.5" r="2.25" fill="#ACACAC" stroke="black" stroke-width="0.5" />
        <path id="Ellipse 14"
          d="M24.75 88.5C24.75 89.5557 24.4288 90.5018 23.9213 91.1784C23.4139 91.8549 22.7321 92.25 22 92.25C21.2679 92.25 20.5861 91.8549 20.0787 91.1784C19.5712 90.5018 19.25 89.5557 19.25 88.5C19.25 87.4443 19.5712 86.4982 20.0787 85.8216C20.5861 85.1451 21.2679 84.75 22 84.75C22.7321 84.75 23.4139 85.1451 23.9213 85.8216C24.4288 86.4982 24.75 87.4443 24.75 88.5Z"
          fill="#C4C4C4" fill-opacity="0.55" stroke="black" stroke-width="0.5" />
        <path id="Ellipse 15"
          d="M23.75 88.5C23.75 89.286 23.5372 89.9862 23.2062 90.4826C22.8741 90.9808 22.4427 91.25 22 91.25C21.5573 91.25 21.1259 90.9808 20.7938 90.4826C20.4628 89.9862 20.25 89.286 20.25 88.5C20.25 87.714 20.4628 87.0138 20.7938 86.5174C21.1259 86.0192 21.5573 85.75 22 85.75C22.4427 85.75 22.8741 86.0192 23.2062 86.5174C23.5372 87.0138 23.75 87.714 23.75 88.5Z"
          fill="#C4C4C4" fill-opacity="0.55" stroke="black" stroke-width="0.5" />
        <circle id="Ellipse 11" cx="98" cy="90.5" r="8" fill="black" />
        <path id="Vector 2" d="M78 59.5H113.432L119 64.5H87.1111L78 59.5Z" fill="#D04507" stroke="black" />
        <path id="Vector 3" d="M53 59.5H28.5L24 63.5H46.5556L53 59.5Z" fill="#D04507" stroke="black" />
        <path id="Vector 4"
          d="M8.5 109.5L8.33334 100.021L27 100C27 102.5 27.4 108.2 27 109C26.6 109.8 14.5 109.667 8.5 109.5Z"
          fill="#D04507" stroke="black" />
        <path id="Vector 6"
          d="M32.0442 110.382L32 101.519L36.9528 101.5C36.9528 103.837 37.059 109.166 36.9528 109.914C36.8467 110.662 33.6362 110.538 32.0442 110.382Z"
          fill="#D04507" stroke="black" />
        <path id="Vector 5" d="M5.5 109.5V100H3.5V109.5H5.5Z" fill="#D04507" stroke="black" />
        <path id="Vector 7" d="M103 111.5V103.5H109V111.5H103Z" fill="#D04507" stroke="black" />
        <path id="Vector 8" d="M115 111.5V100.5H124V111.5H115Z" fill="#D04507" stroke="black" />
        <path id="Vector 9" d="M127 111.5V100.5H130V111.5H127Z" fill="#D04507" stroke="black" />
        <path id="Vector 10" d="M133 111.5V100.5H136V111.5H133Z" fill="#D04507" stroke="black" />
        <path id="Vector 11" d="M138 111.5V101.5H140V111.5H138Z" fill="#D04507" stroke="black" />
        <path id="Vector 14"
          d="M69 46C51.5 46.5 36 53.5 34 56.5H39.5M69 46C75.9095 45.6629 81.8191 46.7933 86.5941 48.501M69 46C74.6249 45.8393 80.7772 46.9083 86.5941 48.501M69 46C63.6253 46 58.619 47.0317 54.2641 48.501M39.5 56.5C41.9644 54.3437 47.2755 50.8589 54.2641 48.501M39.5 56.5H48.5M99.5 56.5H107C102.582 54.1437 94.9327 50.7842 86.5941 48.501M99.5 56.5H84.5M99.5 56.5C97.571 54.2817 93.1528 50.8466 86.5941 48.501M84.5 56.5C82.8333 53.8337 79.3 48.501 78.5 48.501M84.5 56.5H73M86.5941 48.501H78.5M54.2641 48.501H59M48.5 56.5C51.3333 53.8337 57.4 48.501 59 48.501M48.5 56.5H61.5M59 48.501H65.5M78.5 48.501H72M73 56.5C72.8333 53.8337 72.4 48.501 72 48.501M73 56.5H61.5M72 48.501H65.5M65.5 48.501C63.8333 51.1673 60.7 56.5 61.5 56.5"
          stroke="black" />
      </g>
    </g>
    <path id="head-cast-shadow"
      d="M136 149C108.5 130.405 36.5 137.5 3.5 144.5C14.5 137.667 35 122 70.5 122C106 122 136 149 136 149Z" fill="black"
      fill-opacity="0.25" />
    <path id="lower-head" d="M14.5 126.5L1.5 116.5H140.5L125 126.5H14.5Z" fill="#9D9D9D" stroke="black" />
    <path id="antennas" d="M78.5 47V7M95 50.5V0" stroke="black" stroke-width="2" />
  </g>
</svg>