<svg width="225" height="217" viewBox="0 0 225 217" fill="none" xmlns="http://www.w3.org/2000/svg">
  <g id="bb8-body">
    <g id="main-body-bg" filter="url(#filter0_d)">
      <ellipse cx="112.5" cy="108.5" rx="108.5" ry="108" fill="#C4C4C4" />
    </g>
    <mask id="mask0" mask-type="alpha" maskUnits="userSpaceOnUse" x="4" y="0" width="217" height="217">
      <path id="main-body-mask"
        d="M220.5 108.5C220.5 167.868 172.149 216 112.5 216C52.8511 216 4.5 167.868 4.5 108.5C4.5 49.1316 52.8511 1 112.5 1C172.149 1 220.5 49.1316 220.5 108.5Z"
        fill="#C4C4C4" stroke="black" />
    </mask>
    <g mask="url(#mask0)">
      <g id="bottom-left-config">
        <path id="main-circle-outer"
          d="M86.3192 130.481C88.395 165.557 67.8346 195.089 40.6514 196.697C13.4681 198.306 -10.432 171.406 -12.5079 136.33C-14.5838 101.254 5.97664 71.7223 33.1599 70.1135C60.3431 68.5048 84.2433 95.4049 86.3192 130.481Z"
          fill="#D04507" stroke="black" />
        <path id="main-circle-inner"
          d="M69.2509 131.164C70.826 143.662 68.5495 155.424 63.6201 164.333C58.6904 173.243 51.1306 179.269 42.1322 180.403C33.1338 181.537 24.3153 177.575 17.3292 170.167C10.3434 162.759 5.21981 151.93 3.64467 139.432C2.06952 126.933 4.34606 115.172 9.27548 106.262C14.2051 97.3525 21.7649 91.3267 30.7633 90.1927C39.7617 89.0586 48.5802 93.0203 55.5664 100.428C62.5522 107.836 67.6758 118.665 69.2509 131.164Z"
          fill="#BBBBBB" stroke="black" />
        <path id="orange-top-right"
          d="M49.5 132.5L68.5 126.5C68.5 127.333 69.1321 128 69.5 134C69.6554 136.534 69.8333 140.833 69.5 140.5L51.5 140L49.5 132.5Z"
          fill="#D04507" stroke="black" />
        <path id="orange-top-left"
          d="M22 107.5L22 93C22 93 22.8961 91.5 27.5 90.555C33.1923 89.3867 33.5 90 33.5 90L28.5 107.5L22 107.5Z"
          fill="#D04507" stroke="black" />
        <path id="orange-bottom-left" d="M34.5 167.5L42.5 180.5L35.5 180.5L26.5 180.5L29 167.5L34.5 167.5Z"
          fill="#D04507" stroke="black" />
        <g id="main-board">
          <path
            d="M43 178.5L36 167L40.5 159.597L37.5 155.5L40.5 151.3L45 145L42.5 142L45 137.5L49.9804 144L51.5 141.5L67 142.5C68.2 164.9 51.5 175.833 43 178.5Z"
            fill="#919191" />
          <path d="M49 125.5L32 160.5L28 156.5L45 121L49 125.5Z" fill="#919191" />
          <path d="M22 151.3L26 155.484L43 120L39 116.5L22 151.3Z" fill="#919191" />
          <path d="M49 114L56.5 120L59 117.5L50.5 111.5L49 114Z" fill="#919191" />
          <path d="M37.5 115.5L27 136.5L23 142.5L24 145L20.5 150.5L14 145L16.5 140H20.5L24 133L34.5 111.5L37.5 115.5Z"
            fill="#919191" />
          <path
            d="M20.5 96L20.5 108.5L19 113L26 120L24 123L17 117.5L14 124.5L18 128.5L16 132.5L12.5 128.5L10 135C8 131.833 4.13082 122.423 8.5 111.5C12.5 101.5 18 96.6667 20.5 96Z"
            fill="#919191" />
          <path
            d="M40.5 159.597L36 167L43 178.5C51.5 175.833 68.2 164.9 67 142.5L51.5 141.5L49.9804 144M40.5 159.597L37.5 155.5L40.5 151.3M40.5 159.597L43 155.484M45 145L42.5 142L45 137.5L49.9804 144M45 145L47.5 148.081M45 145L40.5 151.3M49.9804 144L47.5 148.081M47.5 148.081L43 155.484M40.5 151.3L43 155.484M27 136.5L37.5 115.5L34.5 111.5L24 133M27 136.5L23 142.5M27 136.5L24 133M23 142.5L20.5 140M23 142.5L24 145L20.5 150.5L14 145L16.5 140H20.5M20.5 140L24 133M19 113L20.5 108.5L20.5 96C18 96.6667 12.5 101.5 8.5 111.5C4.13082 122.423 8 131.833 10 135L12.5 128.5M19 113L26 120L24 123L17 117.5M19 113L17 117.5M17 117.5L14 124.5M14 124.5L12.5 128.5M14 124.5L18 128.5M12.5 128.5L16 132.5L18 128.5M18 128.5L20.5 121M37.5 98.5C39.1421 96.3105 42.4321 96.0685 44.5 97.9381M44.5 97.9381C46.2099 99.484 47.0842 102.474 45.5 107C44.9213 108.157 43.738 108.97 43 109.5C38.6366 112.635 32.8617 105.921 35 102.5L39.5 104.5L38.5 106L41.5 108.5M44.5 97.9381L42.1576 101.5M41.5 102.5L42.1576 101.5M41.5 102.5L43 104M41.5 102.5L39.5 101.5M42.1576 101.5L40.5 100.5M42.1576 101.5L44 103M32 160.5L49 125.5L45 121L28 156.5L32 160.5ZM26 155.484L22 151.3L39 116.5L43 120L26 155.484ZM56.5 120L49 114L50.5 111.5L59 117.5L56.5 120Z"
            stroke="black" />
        </g>
        <path id="bottom-left-line"
          d="M86.1386 142.23C89 144 96.5 145.461 98.5 142.23C100.5 139 99.4051 126.163 98.5 124.5C92.9217 123.11 88.5 124 86.1386 127"
          stroke="black" />
        <path id="mini-circle-1-outer"
          d="M23.8066 62.2982C23.1333 62.98 22.347 63.4069 21.6298 63.555C20.9105 63.7035 20.2913 63.5685 19.8946 63.1767C19.4979 62.7849 19.3552 62.1675 19.4948 61.4464C19.634 60.7274 20.0511 59.9359 20.7244 59.2541C21.3978 58.5723 22.184 58.1454 22.9013 57.9973C23.6206 57.8488 24.2397 57.9838 24.6364 58.3756C25.0331 58.7674 25.1758 59.3848 25.0363 60.1059C24.8971 60.8249 24.48 61.6164 23.8066 62.2982Z"
          fill="#656565" stroke="black" stroke-width="0.5" />
        <path id="mini-circle-1-inner"
          d="M22.9471 61.4493C22.4997 61.9024 22.0111 62.2127 21.5923 62.3552C21.1577 62.5031 20.8772 62.4493 20.7435 62.3173C20.6098 62.1852 20.5525 61.9054 20.695 61.469C20.8323 61.0485 21.1365 60.556 21.5839 60.103C22.0314 59.6499 22.52 59.3396 22.9388 59.1971C23.3734 59.0492 23.6539 59.1031 23.7876 59.2351C23.9212 59.3671 23.9786 59.6469 23.8361 60.0833C23.6988 60.5039 23.3946 60.9963 22.9471 61.4493Z"
          fill="#ACACAC" stroke="black" stroke-width="0.5" />
      </g>
      <g id="bottom-right-config">
        <path id="Ellipse 4"
          d="M189.372 197.7C177.226 208.814 162.756 217.084 149.206 221.481C135.641 225.883 123.112 226.373 114.687 222.089C106.262 217.804 103.373 209.474 105.685 199.349C107.993 189.235 115.481 177.414 127.628 166.3C139.774 155.186 154.244 146.916 167.794 142.519C181.359 138.117 193.888 137.626 202.313 141.911C210.738 146.196 213.627 154.526 211.315 164.651C209.007 174.765 201.519 186.586 189.372 197.7Z"
          fill="#D04507" stroke="black" />
        <path id="Ellipse 5"
          d="M191.008 196.502C182.081 205.612 170.975 212.555 160.26 216.427C149.537 220.302 139.29 221.076 131.953 217.971C124.617 214.867 121.449 208.417 122.38 200.399C123.311 192.387 128.335 182.87 137.262 173.76C146.188 164.651 157.295 157.707 168.01 153.836C178.732 149.961 188.98 149.187 196.316 152.291C203.653 155.396 206.82 161.846 205.889 169.864C204.959 177.876 199.935 187.393 191.008 196.502Z"
          fill="#BFBFBF" stroke="black" />
        <path id="Vector 20" d="M164 172.5L160 157.5C156 159.5 150.5 163 148 164.5L158.5 176.5L164 172.5Z"
          fill="#D04507" stroke="black" />
        <path id="Vector 21" d="M135.5 204.5L122.5 206C123 208.498 124 210.5 125.5 213L136.5 209L135.5 204.5Z"
          fill="#D04507" stroke="black" />
        <path id="Vector 22" d="M196.5 173.5L207.5 168.5C207.5 165.5 205.948 161.669 204 159.5L195 168.5L196.5 173.5Z"
          fill="#D04507" stroke="black" />
        <g id="Vector 31">
          <path
            d="M123.5 204C123.5 198.8 125.167 193.167 126 191C130.8 191.8 149.333 187 158 184.5C158.333 187.833 158.7 194.9 157.5 196.5C156 198.5 123.5 204 123.5 204Z"
            fill="#919191" />
          <path
            d="M194 158.5L160 184C160.8 190 159.667 195.833 159 198L171.5 198.5C179.667 192.333 195.7 179.3 194.5 176.5C193.3 173.7 192.667 170 192.5 168.5L197.5 163.5L194 158.5Z"
            fill="#919191" />
          <path
            d="M123.5 204C123.5 198.8 125.167 193.167 126 191C130.8 191.8 149.333 187 158 184.5C158.333 187.833 158.7 194.9 157.5 196.5C156 198.5 123.5 204 123.5 204Z"
            stroke="black" />
          <path
            d="M194 158.5L160 184C160.8 190 159.667 195.833 159 198L171.5 198.5C179.667 192.333 195.7 179.3 194.5 176.5C193.3 173.7 192.667 170 192.5 168.5L197.5 163.5L194 158.5Z"
            stroke="black" />
        </g>
        <path id="bottom-right-line"
          d="M149.149 151.236C148.02 148.689 145.37 144.05 143.606 142.541C141.401 140.655 127.721 149.504 126.99 151.25C129.397 156.471 128.709 155.973 134 160.5"
          stroke="black" />
        <circle id="mini-circle-3-inner" cx="104" cy="164.5" r="2.75" fill="#656565" stroke="black"
          stroke-width="0.5" />
        <circle id="mini-circle-3-outer" cx="104" cy="164.5" r="1.75" fill="#ACACAC" stroke="black"
          stroke-width="0.5" />
        <circle id="mini-circle-2-inner" cx="165" cy="127.5" r="2.75" fill="#656565" stroke="black"
          stroke-width="0.5" />
        <circle id="mini-circle-2-outer" cx="165" cy="127.5" r="1.75" fill="#ACACAC" stroke="black"
          stroke-width="0.5" />
        <path id="mini-circle-1-inner_2"
          d="M86.3194 197.617C86.0266 198.127 85.4604 198.444 84.7429 198.516C84.0259 198.587 83.1793 198.41 82.3809 197.952C81.5824 197.494 81.0013 196.853 80.701 196.198C80.4004 195.543 80.3877 194.894 80.6805 194.383C80.9733 193.873 81.5396 193.556 82.2571 193.484C82.9741 193.412 83.8207 193.59 84.6191 194.048C85.4176 194.506 85.9987 195.147 86.299 195.802C86.5996 196.457 86.6122 197.106 86.3194 197.617Z"
          fill="#656565" stroke="black" stroke-width="0.5" />
        <path id="mini-circle-1-outer_2"
          d="M85.4519 197.119C85.3067 197.372 84.9818 197.54 84.5011 197.549C84.0261 197.559 83.4446 197.409 82.8783 197.084C82.3119 196.76 81.8889 196.334 81.6571 195.919C81.4224 195.499 81.4029 195.134 81.5481 194.881C81.6933 194.628 82.0182 194.46 82.4989 194.451C82.9739 194.441 83.5554 194.591 84.1217 194.916C84.6881 195.24 85.1111 195.666 85.3429 196.081C85.5776 196.501 85.5971 196.866 85.4519 197.119Z"
          fill="#ACACAC" stroke="black" stroke-width="0.5" />
      </g>
      <g id="top-right-config">
        <path id="Ellipse 6"
          d="M182.697 25.7843C205.476 49.2023 209.187 82.2118 191.369 99.5434C173.551 116.875 140.657 112.253 117.878 88.8353C95.0987 65.4174 91.3886 32.4079 109.206 15.0763C127.024 -2.25532 159.918 2.36634 182.697 25.7843Z"
          fill="#D04507" stroke="black" />
        <path id="Ellipse 7"
          d="M178.27 31.7451C193.401 48.7314 194.857 71.8234 181.897 83.3678C168.936 94.9122 146.166 90.805 131.035 73.8186C115.905 56.8323 114.449 33.7402 127.409 22.1959C140.37 10.6515 163.14 14.7587 178.27 31.7451Z"
          fill="#C3C3C3" stroke="black" />
        <path id="Vector 19"
          d="M182 59L170 56L142 48C141.333 53.6667 143.8 65.8 159 69C174.2 72.2 180.667 63.6667 182 59Z" fill="#D2D2D2"
          stroke="black" />
        <path id="Vector 20_2" d="M139 56L124.5 64.5C125.5 66.5 129.5 72.5 131.5 74.5L144 62L139 56Z" fill="#D04507"
          stroke="black" />
        <path id="Vector 21_2" d="M174 71L177 86.5C179 85.5 184.544 80.1973 186 78.5L178.5 68L174 71Z" fill="#D04507"
          stroke="black" />
        <path id="Vector 25"
          d="M172.5 35L177.5 40.5C180.5 40.5 184.5 40 184.5 40C184.5 40 184 38.5 181 35C178 31.5 177 30.5 177 30.5L172.5 35Z"
          fill="#D04507" stroke="black" />
        <path id="Vector 26" d="M128 21.5L140.5 27.8831L145.5 25L138 16.5C133.152 17.7667 131.012 18.898 128 21.5Z"
          fill="#D04507" stroke="black" />
        <path id="Vector 22_2"
          d="M144 81.5L149.5 72L160 75.5C159.833 79 157.5 86.5 157.5 86.5C157.5 86.5 153.395 86.0858 150.5 85C146.5 83.5 145.5 82.5 144 81.5Z"
          fill="#919191" stroke="black" />
        <path id="Vector 23"
          d="M157.5 86.4424L160 75.5L172 75.5L174.5 84.5C174.5 84.5 173.143 86 167 86.4424C160.143 86.9363 159.294 86.6179 157.5 86.4424Z"
          fill="#CDCDCD" stroke="black" />
        <path id="Vector 24" d="M144 81.5L149.5 72L142.5 66.5L135 74L144 81.5Z" fill="#CDCDCD" stroke="black" />
        <path id="upper-right-line"
          d="M102.5 23C100.333 22 96 20.5 94 20.5C91.5 20.5 87.5 33.5 88 35C92.5 37 92 37.5 98 37.5" stroke="black" />
        <path id="lines" d="M78 171C86.6667 176.5 105 187.7 109 188.5M187.5 163.5C204 71 149 9 86 5M107.5 75.5L74.5 94"
          stroke="black" />
        <circle id="mini-circle-4-outer" cx="104" cy="107.5" r="2.75" fill="#656565" stroke="black"
          stroke-width="0.5" />
        <circle id="mini-circle-4-inner" cx="104" cy="107.5" r="1.75" fill="#ACACAC" stroke="black"
          stroke-width="0.5" />
        <path id="mini-circle-3-outer_2"
          d="M205.75 114.5C205.75 116.063 204.702 117.25 203.5 117.25C202.298 117.25 201.25 116.063 201.25 114.5C201.25 112.937 202.298 111.75 203.5 111.75C204.702 111.75 205.75 112.937 205.75 114.5Z"
          fill="#656565" stroke="black" stroke-width="0.5" />
        <path id="mini-circle-3-inner_2"
          d="M204.75 114.5C204.75 115.003 204.597 115.45 204.361 115.764C204.125 116.079 203.818 116.25 203.5 116.25C203.182 116.25 202.875 116.079 202.639 115.764C202.403 115.45 202.25 115.003 202.25 114.5C202.25 113.997 202.403 113.55 202.639 113.236C202.875 112.921 203.182 112.75 203.5 112.75C203.818 112.75 204.125 112.921 204.361 113.236C204.597 113.55 204.75 113.997 204.75 114.5Z"
          fill="#ACACAC" stroke="black" stroke-width="0.5" />
        <path id="mini-circle-2-outer_2"
          d="M77.157 59.8497C77.4192 60.3767 77.3683 61.0236 77.0296 61.6603C76.6912 62.2964 76.0733 62.9018 75.2493 63.3117C74.4252 63.7216 73.5696 63.8492 72.8581 63.7354C72.1461 63.6214 71.5995 63.2718 71.3373 62.7447C71.0751 62.2177 71.126 61.5708 71.4647 60.9342C71.8031 60.298 72.421 59.6926 73.245 59.2827C74.0691 58.8728 74.9247 58.7452 75.6362 58.859C76.3482 58.973 76.8948 59.3226 77.157 59.8497Z"
          fill="#656565" stroke="black" stroke-width="0.5" />
        <path id="mini-circle-2-inner_2"
          d="M76.2617 60.2951C76.3917 60.5564 76.3507 60.9197 76.0917 61.3249C75.8358 61.7252 75.3884 62.1256 74.8039 62.4164C74.2194 62.7071 73.6301 62.8224 73.1565 62.785C72.6771 62.7471 72.3627 62.5607 72.2326 62.2993C72.1026 62.038 72.1436 61.6747 72.4026 61.2696C72.6585 60.8693 73.1059 60.4688 73.6904 60.178C74.2749 59.8873 74.8642 59.772 75.3378 59.8094C75.8172 59.8473 76.1317 60.0337 76.2617 60.2951Z"
          fill="#ACACAC" stroke="black" stroke-width="0.5" />
        <path id="mini-circle-1-outer_3"
          d="M87.5264 8.52401C87.7791 8.93805 87.7394 9.53305 87.3736 10.2014C87.0117 10.8628 86.3521 11.5472 85.4735 12.0835C84.595 12.6198 83.6848 12.8935 82.931 12.9131C82.1694 12.9329 81.6221 12.6963 81.3693 12.2822C81.1166 11.8682 81.1563 11.2732 81.5221 10.6049C81.884 9.94343 82.5436 9.25902 83.4222 8.72276C84.3007 8.1865 85.2109 7.91271 85.9647 7.89311C86.7263 7.87332 87.2736 8.10996 87.5264 8.52401Z"
          fill="#656565" stroke="black" stroke-width="0.5" />
        <path id="mini-circle-1-inner_3"
          d="M86.32 9.06534C86.4232 9.23445 86.4088 9.53272 86.1558 9.93605C85.9118 10.325 85.482 10.7443 84.9186 11.0882C84.3552 11.432 83.7859 11.6226 83.3284 11.6619C82.8541 11.7025 82.5822 11.579 82.479 11.4099C82.3757 11.2408 82.3901 10.9425 82.6431 10.5392C82.8872 10.1502 83.3169 9.73096 83.8803 9.38706C84.4437 9.04317 85.013 8.85258 85.4705 8.81336C85.9449 8.7727 86.2167 8.89623 86.32 9.06534Z"
          fill="#ACACAC" stroke="black" stroke-width="0.5" />
      </g>
      <g id="main-body-outline" filter="url(#filter1_d)">
        <path
          d="M220 108.5C220 167.59 171.875 215.5 112.5 215.5C53.125 215.5 5 167.59 5 108.5C5 49.4099 53.125 1.5 112.5 1.5C171.875 1.5 220 49.4099 220 108.5Z"
          stroke="black" stroke-width="2" />
      </g>
    </g>
  </g>
  <defs>
    <filter id="filter0_d" x="0" y="0.5" width="225" height="224" filterUnits="userSpaceOnUse"
      color-interpolation-filters="sRGB">
      <feFlood flood-opacity="0" result="BackgroundImageFix" />
      <feColorMatrix in="SourceAlpha" type="matrix" values="0 0 0 0 0 0 0 0 0 0 0 0 0 0 0 0 0 0 127 0" />
      <feOffset dy="4" />
      <feGaussianBlur stdDeviation="2" />
      <feColorMatrix type="matrix" values="0 0 0 0 0 0 0 0 0 0 0 0 0 0 0 0 0 0 0.25 0" />
      <feBlend mode="normal" in2="BackgroundImageFix" result="effect1_dropShadow" />
      <feBlend mode="normal" in="SourceGraphic" in2="effect1_dropShadow" result="shape" />
    </filter>
    <filter id="filter1_d" x="0" y="0.5" width="225" height="224" filterUnits="userSpaceOnUse"
      color-interpolation-filters="sRGB">
      <feFlood flood-opacity="0" result="BackgroundImageFix" />
      <feColorMatrix in="SourceAlpha" type="matrix" values="0 0 0 0 0 0 0 0 0 0 0 0 0 0 0 0 0 0 127 0" />
      <feOffset dy="4" />
      <feGaussianBlur stdDeviation="2" />
      <feColorMatrix type="matrix" values="0 0 0 0 0 0 0 0 0 0 0 0 0 0 0 0 0 0 0.25 0" />
      <feBlend mode="normal" in2="BackgroundImageFix" result="effect1_dropShadow" />
      <feBlend mode="normal" in="SourceGraphic" in2="effect1_dropShadow" result="shape" />
    </filter>
  </defs>
</svg>